<?xml version="1.0" encoding="UTF-8" standalone="no"?>
<svg
   version="1.1"
   width="512"
   height="512"
   x="0"
   y="0"
   viewBox="0 0 512 512"
   style="enable-background:new 0 0 512 512"
   xml:space="preserve"
   class=""
   id="svg6"
   sodipodi:docname="github1.svg"
   inkscape:version="1.1 (c4e8f9ed74, 2021-05-24)"
   xmlns:inkscape="http://www.inkscape.org/namespaces/inkscape"
   xmlns:sodipodi="http://sodipodi.sourceforge.net/DTD/sodipodi-0.dtd"
   xmlns="http://www.w3.org/2000/svg"
   xmlns:svg="http://www.w3.org/2000/svg"><defs
     id="defs10" /><sodipodi:namedview
     id="namedview8"
     pagecolor="#ffffff"
     bordercolor="#666666"
     borderopacity="1.0"
     inkscape:pageshadow="2"
     inkscape:pageopacity="0.0"
     inkscape:pagecheckerboard="0"
     showgrid="false"
     inkscape:zoom="1"
     inkscape:cx="251"
     inkscape:cy="218"
     inkscape:window-width="1688"
     inkscape:window-height="1360"
     inkscape:window-x="1727"
     inkscape:window-y="55"
     inkscape:window-maximized="1"
     inkscape:current-layer="svg6" /><path
     d="M 331.43971,511.99894 H 209.14706 m 0,-40.76425 v -42.8014 c 0,-22.82904 6.11463,-30.98189 14.26747,-41.99035 4.15073,-4.74522 6.65603,-9.00211 25.27063,-37.09122 l -31.38527,-4.89384 C 136.58357,332.63731 104.78959,290.64696 92.151619,258.03555 75.84593,214.421 84.407484,159.79265 113.75983,125.14834 c 4.48513,-5.30255 8.15285,-14.27279 4.89383,-23.64643 -6.11993,-18.752609 -5.30253,-48.508394 -1.2261,-59.925564 21.61352,3.089156 43.83747,18.572154 62.37244,29.761077 8.54031,4.984068 13.02013,3.667722 17.11778,4.076423 14.8938,-3.099771 38.12622,-10.599763 73.78431,-10.599763 22.01162,0 45.24934,3.259019 68.07836,9.78236 4.08173,-0.09546 10.64222,3.375787 22.01162,-3.25902 19.37361,-11.804645 40.84385,-26.756847 62.36714,-29.761077 4.07641,11.41717 4.89381,41.172955 -1.22082,59.925564 -3.26431,9.37364 0.40341,18.34388 4.89385,23.64643 29.34703,34.64961 37.90859,89.27266 21.60289,132.88721 -12.63796,32.61141 -44.43193,74.60176 -125.14825,86.42233 l -31.38527,4.89384 c 19.24091,29.03391 21.26851,32.51586 25.27594,37.09122 8.14752,11.00846 14.26216,19.16131 14.26216,41.99035 v 42.8014 M 372.20392,512 v -83.56671 c 0,-23.23774 -4.89381,-38.72603 -11.41715,-50.14321 61.96373,-16.7091 105.99227,-53.40222 125.55697,-105.98703 20.79081,-55.43514 11.41717,-121.47536 -23.23772,-167.13343 6.11993,-27.308855 6.11993,-70.928718 -8.55624,-91.310842 C 448.02643,4.8938291 439.05619,0 427.64432,0 h -0.4087 C 395.62744,1.7091228 370.74958,17.627351 344.07768,33.832199 319.61915,27.30886 294.75192,24.04984 269.88467,24.04984 c -25.27063,0 -50.54656,3.667723 -72.96157,9.782359 C 168.84461,16.900172 144.20563,1.6666594 111.72162,0 101.53056,0 92.560319,4.8938291 86.036983,13.858778 71.366113,34.240902 71.366113,77.860765 77.480739,105.16962 42.825843,150.82769 33.4522,217.27131 54.243025,272.30305 73.807732,324.88786 117.83626,361.58098 179.8,378.29008 c -5.05837,8.84819 -9.06048,20.26536 -10.63692,35.71648 -12.51589,4.31529 -23.37041,5.72187 -33.46594,2.75478 -10.64752,-3.14754 -18.94367,-10.25476 -26.15172,-22.37786 -16.188912,-27.19741 -43.763153,-49.40013 -75.159041,-46.51265 -30.5720391,4.00251 -24.599973,44.57704 3.582787,40.605 14.53818,-1.33226 29.00736,14.04989 36.523265,26.73033 12.399112,20.88103 29.102889,34.57528 49.660169,40.64746 15.26003,4.49575 29.20903,4.3896 44.23023,1.18365 V 512"
     fill="#ffffff"
     data-original="#000000"
     class=""
     id="path1050"
     style="fill:#ffffff;fill-opacity:0.99946;stroke-width:1.3588"
     sodipodi:nodetypes="cccscccccccccscccccccccsccsccccsccsccccccccccccccc" /></svg>
